# xmcd
#
# Track frame offsets: 
#        150
#        16826
#        37085
#        52676
#        71679
#
# Disc length: 1193 seconds
#
# Revision: 0
# Processed by: cddbd v1.5.2PL0 Copyright (c) Steve Scherf et al.
# Submitted via: ExactAudioCopy v0.99pb4
#
DISCID=3704a705
DTITLE=Carrie Underwood - Carnival Ride (Carnival Ride (Special Wal-Ma
DTITLE=rt Edition CD 2)
DYEAR=2008
DGENRE=Country
TTITLE0=Hark! The Herald Angels Sing
TTITLE1=The First Noel
TTITLE2=What Child Is This?
TTITLE3=Do You Hear What I Hear
TTITLE4=O Holy Night
EXTD=
EXTT0=
EXTT1=
EXTT2=
EXTT3=
EXTT4=
PLAYORDER=
